<svg width="77" height="11" viewBox="0 0 77 11" fill="none" xmlns="http://www.w3.org/2000/svg">
<path d="M30.6995 0.201172L27.9685 7.57042L25.2262 0.201172H21.8125V10.0307H23.8607V2.55772L26.7055 10.0307H28.9528L31.7976 2.51739V10.0307H33.988V0.201172H30.6995Z" fill="#BCC3D2"/>
<path d="M48.2616 0.201172H55.7774V10.0249H53.4504V2.26963H50.3838C50.361 3.65245 50.3212 5.4962 50.2814 6.53331C50.2017 9.1088 49.4621 10.0249 47.2716 10.0249H46.2305V7.95646H46.8108C47.7951 7.95646 48.1137 7.5128 48.1763 6.10694C48.2389 4.60889 48.2616 1.62432 48.2616 0.201172Z" fill="#BCC3D2"/>
<path d="M67.668 0.201172H76.5094V2.26963H73.2437V10.0307H70.9394V2.26963H67.668V0.201172Z" fill="#BCC3D2"/>
<path d="M15.798 0H14.9617C12.9647 0 11.4456 1.23301 11.0985 3.06524L13.2207 3.41094C13.5108 2.53516 14.1765 1.9417 15.0243 1.90137C15.303 1.88985 15.2348 1.88985 15.5079 1.90137C16.7652 1.94746 17.3285 2.55821 17.3285 4.06202C14.9503 4.06202 13.3231 3.94678 12.1283 4.74766C11.1497 5.39874 10.7344 6.12472 10.7344 7.26554C10.7344 8.91916 12.0031 10.2328 14.057 10.2328H14.3415C15.7923 10.2328 16.9587 9.66242 17.4366 8.97101V10.0312H19.5758V4.10811C19.5758 1.82071 18.3697 0 15.798 0ZM14.4894 8.31417C13.5791 8.28536 13.05 7.75529 13.05 7.08116C13.05 6.52228 13.3003 6.24571 13.6246 6.05558C13.9717 5.85392 14.4155 5.77901 15.1153 5.75597C15.7866 5.73292 16.3271 5.70411 17.3683 5.70411C17.3683 7.38077 16.3271 8.22199 15.0356 8.31417C14.8308 8.3257 14.7056 8.31993 14.4894 8.31417Z" fill="#BCC3D2"/>
<path d="M67.1329 5.77979V4.85792C67.1329 1.68897 65.1644 0.046875 62.6269 0.046875H62.1319C59.4009 0.046875 57.6543 1.93672 57.5632 4.59864C57.5518 4.99044 57.5518 5.15176 57.5632 5.68184C57.6258 8.33224 59.4635 10.1184 61.9157 10.1818C62.3652 10.1933 62.3083 10.1933 62.7293 10.1818C64.8628 10.1184 66.4787 8.87384 66.9566 7.24327L64.8913 6.88028C64.3849 7.90011 63.4234 8.29191 62.6553 8.33224C62.4107 8.34376 62.3765 8.34376 62.1319 8.33224C60.9257 8.28038 59.8447 7.32394 59.8447 5.93536V5.77979H67.1329ZM62.0864 1.90215C62.331 1.89063 62.4164 1.89063 62.661 1.90215C63.6737 1.95401 64.7434 2.62237 64.8458 3.94756H59.8561C59.9699 2.76065 60.9086 1.96553 62.0864 1.90215Z" fill="#BCC3D2"/>
<path d="M45.5985 4.24717C45.5473 1.86758 43.6527 0.046875 41.1493 0.046875H40.239C37.7356 0.046875 35.841 1.86758 35.7898 4.2587C35.7784 4.9213 35.7784 5.30733 35.7898 5.96993C35.841 8.36105 37.7356 10.1818 40.239 10.1818H41.1493C43.6527 10.1818 45.5473 8.36105 45.5985 5.96993C45.6155 5.31309 45.6155 4.90977 45.5985 4.24717ZM43.3113 5.8547C43.2828 7.24327 42.2872 8.1882 40.9445 8.25734C40.6884 8.26886 40.7055 8.26886 40.4438 8.25734C39.0897 8.1882 38.1054 7.24327 38.077 5.8547C38.0656 5.27852 38.0656 4.9501 38.077 4.37393C38.1054 2.99688 39.0897 2.05772 40.4438 1.98858C40.6998 1.97705 40.6828 1.97705 40.9445 1.98858C42.2872 2.05772 43.2828 3.00264 43.3113 4.39122C43.3284 4.96163 43.3284 5.27276 43.3113 5.8547Z" fill="#BCC3D2"/>
<path d="M7.12609 6.56339C6.85868 7.47374 6.13043 8.10177 5.15753 8.23429C4.87874 8.27462 4.59996 8.2631 4.37238 8.23429C3.16051 8.06144 2.31278 7.14532 2.28433 5.8547C2.27295 5.27852 2.27295 4.9501 2.28433 4.37393C2.31278 3.07178 3.20603 2.1211 4.43496 1.98858C4.50892 1.98282 4.77633 1.95401 5.03236 1.98282C6.06784 2.09805 6.8473 2.72608 7.12609 3.68252L9.37913 3.23887C8.9069 1.37207 7.23988 0.046875 5.10063 0.046875H4.45772C1.95434 0.046875 0.0597397 1.86758 0.00853424 4.2587C-0.00284475 4.9213 -0.00284475 5.30733 0.00853424 5.96993C0.0597397 8.36105 1.95434 10.1818 4.45772 10.1818H5.10632C7.2854 10.1818 8.96949 8.8047 9.41327 6.87452L7.12609 6.56339Z" fill="#BCC3D2"/>
</svg>
