<svg width="127" height="16" viewBox="0 0 127 16" fill="none" xmlns="http://www.w3.org/2000/svg">
<path d="M30.6995 3.75464L27.9685 11.1239L25.2262 3.75464H21.8125V13.5841H23.8607V6.11119L26.7055 13.5841H28.9528L31.7976 6.07085V13.5841H33.988V3.75464H30.6995Z" fill="#BCC3D2"/>
<path d="M48.2616 3.75464H55.7774V13.5784H53.4504V5.8231H50.3838C50.361 7.20591 50.3212 9.04967 50.2814 10.0868C50.2017 12.6623 49.4621 13.5784 47.2716 13.5784H46.2305V11.5099H46.8108C47.7951 11.5099 48.1137 11.0663 48.1763 9.66041C48.2389 8.16236 48.2616 5.17779 48.2616 3.75464Z" fill="#BCC3D2"/>
<path d="M67.668 3.75464H76.5094V5.8231H73.2437V13.5841H70.9394V5.8231H67.668V3.75464Z" fill="#BCC3D2"/>
<path d="M15.798 3.55347H14.9617C12.9647 3.55347 11.4456 4.78648 11.0985 6.61871L13.2207 6.96441C13.5108 6.08863 14.1765 5.49517 15.0243 5.45484C15.303 5.44331 15.2348 5.44331 15.5079 5.45484C16.7652 5.50093 17.3285 6.11167 17.3285 7.61549C14.9503 7.61549 13.3231 7.50025 12.1283 8.30113C11.1497 8.95221 10.7344 9.67818 10.7344 10.819C10.7344 12.4726 12.0031 13.7863 14.057 13.7863H14.3415C15.7923 13.7863 16.9587 13.2159 17.4366 12.5245V13.5846H19.5758V7.66158C19.5758 5.37417 18.3697 3.55347 15.798 3.55347ZM14.4894 11.8676C13.5791 11.8388 13.05 11.3088 13.05 10.6346C13.05 10.0757 13.3003 9.79918 13.6246 9.60904C13.9717 9.40738 14.4155 9.33248 15.1153 9.30943C15.7866 9.28639 16.3271 9.25758 17.3683 9.25758C17.3683 10.9342 16.3271 11.7755 15.0356 11.8676C14.8308 11.8792 14.7056 11.8734 14.4894 11.8676Z" fill="#BCC3D2"/>
<path d="M67.1329 9.33326V8.41138C67.1329 5.24243 65.1644 3.60034 62.6269 3.60034H62.1319C59.4009 3.60034 57.6543 5.49019 57.5632 8.15211C57.5518 8.5439 57.5518 8.70523 57.5632 9.23531C57.6258 11.8857 59.4635 13.6718 61.9157 13.7352C62.3652 13.7467 62.3083 13.7467 62.7293 13.7352C64.8628 13.6718 66.4787 12.4273 66.9566 10.7967L64.8913 10.4338C64.3849 11.4536 63.4234 11.8454 62.6553 11.8857C62.4107 11.8972 62.3765 11.8972 62.1319 11.8857C60.9257 11.8338 59.8447 10.8774 59.8447 9.48883V9.33326H67.1329ZM62.0864 5.45562C62.331 5.44409 62.4164 5.44409 62.661 5.45562C63.6737 5.50747 64.7434 6.17583 64.8458 7.50103H59.8561C59.9699 6.31412 60.9086 5.519 62.0864 5.45562Z" fill="#BCC3D2"/>
<path d="M45.5985 7.80064C45.5473 5.42105 43.6527 3.60034 41.1493 3.60034H40.239C37.7356 3.60034 35.841 5.42105 35.7898 7.81216C35.7784 8.47476 35.7784 8.8608 35.7898 9.5234C35.841 11.9145 37.7356 13.7352 40.239 13.7352H41.1493C43.6527 13.7352 45.5473 11.9145 45.5985 9.5234C45.6155 8.86656 45.6155 8.46324 45.5985 7.80064ZM43.3113 9.40816C43.2828 10.7967 42.2872 11.7417 40.9445 11.8108C40.6884 11.8223 40.7055 11.8223 40.4438 11.8108C39.0897 11.7417 38.1054 10.7967 38.077 9.40816C38.0656 8.83199 38.0656 8.50357 38.077 7.9274C38.1054 6.55035 39.0897 5.61118 40.4438 5.54204C40.6998 5.53052 40.6828 5.53052 40.9445 5.54204C42.2872 5.61118 43.2828 6.55611 43.3113 7.94468C43.3284 8.51509 43.3284 8.82623 43.3113 9.40816Z" fill="#BCC3D2"/>
<path d="M7.12609 10.1169C6.85868 11.0272 6.13043 11.6552 5.15753 11.7878C4.87874 11.8281 4.59996 11.8166 4.37238 11.7878C3.16051 11.6149 2.31278 10.6988 2.28433 9.40816C2.27295 8.83199 2.27295 8.50357 2.28433 7.9274C2.31278 6.62525 3.20603 5.67456 4.43496 5.54204C4.50892 5.53628 4.77633 5.50747 5.03236 5.53628C6.06784 5.65152 6.8473 6.27954 7.12609 7.23599L9.37913 6.79234C8.9069 4.92554 7.23988 3.60034 5.10063 3.60034H4.45772C1.95434 3.60034 0.0597397 5.42105 0.00853424 7.81216C-0.00284475 8.47476 -0.00284475 8.8608 0.00853424 9.5234C0.0597397 11.9145 1.95434 13.7352 4.45772 13.7352H5.10632C7.2854 13.7352 8.96949 12.3582 9.41327 10.428L7.12609 10.1169Z" fill="#BCC3D2"/>
<path d="M112.598 7.887C112.598 6.87293 112.029 6.19881 111.005 6.19881C109.503 6.19881 108.587 7.6911 108.587 9.18915C108.587 10.1802 109.213 10.837 110.168 10.837C111.71 10.837 112.598 9.41962 112.598 7.887Z" fill="#BCC3D2"/>
<path fill-rule="evenodd" clip-rule="evenodd" d="M125.132 0.834717H82.114C81.1183 0.834717 80.3047 1.65288 80.3047 2.66695V13.7986C80.3047 14.8069 81.1126 15.6308 82.114 15.6308H125.132C126.128 15.6308 126.941 14.8127 126.941 13.7986V2.66695C126.941 1.65288 126.134 0.834717 125.132 0.834717ZM85.1913 4.45307H92.36L90.6817 12.5829H88.6505L89.9136 6.42358H86.8185L85.544 12.5829H83.5129L85.1913 4.45307ZM101.804 4.45302H95.6766C95.3239 6.22764 94.8858 8.19815 94.5842 9.47725C94.3965 10.2436 94.0039 10.5432 93.3212 10.5432H92.9172L92.5019 12.5771H93.4122C95.1134 12.5771 95.9895 11.9836 96.4959 9.81719C96.6688 9.06948 96.8371 8.30098 96.9937 7.58625L96.9939 7.58527C97.0845 7.17131 97.1713 6.77539 97.2526 6.41201H99.3634L98.089 12.5828H100.132L101.804 4.45302ZM106.493 9.50028H105.275L104.638 12.5828H102.607L104.285 4.45301H106.317L105.679 7.52401H106.789C107.346 5.7782 108.735 4.33201 111.17 4.33201C113.377 4.33201 114.686 5.62264 114.686 7.645C114.686 10.1053 113.315 12.7038 109.998 12.7038C107.887 12.7038 106.527 11.4881 106.493 9.50028ZM123.772 9.92671L121.786 9.55796C121.445 10.3243 120.773 10.8371 119.892 10.8255C118.998 10.8255 118.429 10.2321 118.429 9.17769C118.429 7.64507 119.317 6.18735 120.722 6.18735C121.621 6.18735 122.048 6.74048 122.128 7.44341L124.204 7.09771C124.108 5.38071 122.964 4.32631 120.899 4.32631C117.838 4.32631 116.353 6.91909 116.353 9.40816C116.353 11.4305 117.724 12.6981 119.744 12.6981C121.906 12.6981 123.157 11.6379 123.772 9.92671Z" fill="#BCC3D2"/>
</svg>
